<?xml version="1.0" encoding="UTF-8"?><svg id="Layer_1" xmlns="http://www.w3.org/2000/svg" viewBox="0 0 16 16"><defs><style>.cls-1{fill:#fff;}.cls-2{fill:#b31117;}.cls-3{fill:#020202;stroke:#000;stroke-miterlimit:10;stroke-width:.5px;}</style></defs><rect class="cls-1" width="16" height="16"/><g><polygon class="cls-2" points="13.93 16 2.06 16 2.06 13.29 13.93 13.29 13.93 16 13.93 16"/><path class="cls-3" d="M11.16,.23c.15,.07,.2,.19,.19,.35,0,.18,0,.35,0,.53,0,.13,.04,.15,.16,.15,.52,0,1.05,0,1.57,0,.25,0,.34,.08,.33,.33,0,.44,.02,.88-.02,1.31-.13,1.49-1.29,2.82-2.75,3.14-.02,0-.04,.01-.06,.01-.29,.02-.53,.14-.76,.32-.14,.11-.3,.19-.46,.25-.06,.03-.08,.06-.07,.12,.25,1.19,.64,2.34,1.16,3.44,.03,.06,.07,.07,.13,.08,.92,.15,1.56,.75,1.76,1.62,.03,.14,.04,.28,.04,.42,0,.16-.1,.26-.27,.27-.03,0-.06,0-.08,0-2.68,0-5.36,0-8.04,0-.28,0-.36-.08-.35-.36,.03-.96,.78-1.79,1.73-1.93,.12-.02,.18-.06,.24-.17,.5-1.07,.87-2.19,1.12-3.34,.02-.08,.01-.12-.07-.15-.27-.11-.51-.26-.74-.45-.04-.03-.09-.05-.14-.06-1.67-.2-2.99-1.55-3.14-3.22-.04-.46-.02-.92-.02-1.39,0-.16,.11-.25,.29-.25,.54,0,1.09,0,1.63,0,.1,0,.14-.02,.13-.13-.01-.18,0-.37,0-.55,0-.16,.04-.28,.19-.35h6.32Zm-3.15,.51c-.91,0-1.82,0-2.73,0-.07,0-.12,0-.11,.1,0,.93,0,1.86,0,2.79,.02,1.44,1.09,2.6,2.52,2.76,1.64,.18,3.1-1.09,3.13-2.73,.02-.94,0-1.87,0-2.81,0-.09-.03-.11-.11-.11-.9,0-1.81,0-2.71,0Zm-.01,11.33c1.24,0,2.48,0,3.72,0,.12,0,.12-.03,.1-.13-.17-.67-.78-1.16-1.51-1.16-1.54,0-3.07,0-4.61,0-.74,0-1.35,.49-1.51,1.17-.02,.1,0,.12,.1,.12,1.24,0,2.48,0,3.72,0Zm-1.9-1.81h3.81s0-.02,0-.03c-.49-1.06-.86-2.17-1.1-3.31-.02-.08-.05-.08-.12-.07-.44,.09-.89,.09-1.33,0-.09-.02-.13-.01-.15,.09-.15,.74-.37,1.46-.63,2.17-.14,.39-.3,.76-.48,1.14Zm-.85-4.78s-.03-.06-.04-.08c-.38-.59-.55-1.23-.55-1.93,0-.53,0-1.07,0-1.6,0-.07-.01-.1-.09-.1-.45,0-.91,0-1.36,0-.07,0-.1,.02-.1,.09,0,.24,0,.48,0,.72,.01,.56,.16,1.08,.45,1.55,.39,.64,.95,1.08,1.69,1.34Zm5.51-.02s.07,0,.1-.02c1.06-.41,1.72-1.18,1.97-2.28,.09-.42,.06-.84,.07-1.26,0-.1-.02-.13-.12-.13-.43,0-.87,0-1.3,0-.1,0-.13,.02-.13,.12,0,.55,0,1.09,0,1.64,0,.7-.19,1.34-.59,1.93Z"/></g></svg>